<?xml version="1.0" encoding="utf-8"?>
<!-- Generator: Adobe Illustrator 22.0.1, SVG Export Plug-In . SVG Version: 6.00 Build 0)  -->
<svg version="1.0" id="Capa_1" xmlns="http://www.w3.org/2000/svg" xmlns:xlink="http://www.w3.org/1999/xlink" x="0px" y="0px"
	 viewBox="0 0 706.3 164.7" enable-background="new 0 0 706.3 164.7" xml:space="preserve">
<g>
	<g>
		<path fill="#212121" d="M45.7,110.2v34.3h-2.1l-23.4-29.8v29.8h-2.5v-34.3h2.1L43.2,140v-29.8H45.7z"/>
		<path fill="#212121" d="M81.3,142.3v2.3H57.6v-34.3h22.9v2.3H60.1V126h18.3v2.2H60.1v14.1H81.3z"/>
		<path fill="#212121" d="M114.8,127.5h2.4v12.8c-1.5,1.4-3.3,2.5-5.5,3.3c-2.1,0.8-4.4,1.1-6.8,1.1c-3.4,0-6.5-0.8-9.2-2.3
			c-2.7-1.5-4.9-3.6-6.4-6.2c-1.6-2.6-2.3-5.6-2.3-8.9c0-3.3,0.8-6.3,2.3-8.9c1.6-2.7,3.7-4.7,6.4-6.2s5.8-2.3,9.2-2.3
			c2.5,0,4.8,0.4,6.9,1.2c2.1,0.8,3.9,2,5.4,3.5l-1.6,1.7c-1.4-1.4-3-2.5-4.8-3.1c-1.8-0.6-3.8-1-5.9-1c-2.9,0-5.6,0.7-8,2
			c-2.4,1.3-4.2,3.1-5.6,5.4c-1.3,2.3-2,4.9-2,7.7c0,2.8,0.7,5.4,2,7.7c1.4,2.3,3.2,4.1,5.6,5.4s5,2,7.9,2c3.9,0,7.2-1,9.8-3.1
			V127.5z"/>
		<path fill="#212121" d="M133.6,142.5c-2.7-1.5-4.8-3.6-6.4-6.3c-1.6-2.6-2.3-5.6-2.3-8.9c0-3.3,0.8-6.2,2.3-8.9
			c1.6-2.6,3.7-4.7,6.4-6.3c2.7-1.5,5.8-2.3,9.1-2.3s6.4,0.8,9.1,2.3c2.7,1.5,4.8,3.6,6.4,6.2c1.6,2.6,2.3,5.6,2.3,8.9
			c0,3.3-0.8,6.3-2.3,8.9c-1.6,2.6-3.7,4.7-6.4,6.2c-2.7,1.5-5.8,2.3-9.1,2.3S136.3,144,133.6,142.5z M150.5,140.5
			c2.3-1.3,4.2-3.1,5.5-5.4c1.3-2.3,2-4.9,2-7.7c0-2.8-0.7-5.4-2-7.7c-1.3-2.3-3.2-4.1-5.5-5.4c-2.3-1.3-4.9-2-7.8-2
			c-2.9,0-5.5,0.7-7.8,2c-2.3,1.3-4.2,3.1-5.5,5.4c-1.3,2.3-2,4.9-2,7.7c0,2.8,0.7,5.4,2,7.7c1.3,2.3,3.2,4.1,5.5,5.4
			c2.3,1.3,4.9,2,7.8,2C145.6,142.5,148.2,141.8,150.5,140.5z"/>
		<path fill="#212121" d="M174.7,142.5c-2.7-1.5-4.8-3.6-6.4-6.2c-1.6-2.6-2.3-5.6-2.3-8.9c0-3.3,0.8-6.3,2.3-8.9
			c1.6-2.7,3.7-4.7,6.4-6.2s5.7-2.3,9.1-2.3c2.5,0,4.8,0.4,6.9,1.2c2.1,0.8,3.9,2,5.3,3.6l-1.6,1.6c-2.7-2.7-6.3-4.1-10.5-4.1
			c-2.9,0-5.5,0.7-7.8,2c-2.4,1.3-4.2,3.1-5.5,5.4c-1.3,2.3-2,4.9-2,7.7c0,2.8,0.7,5.4,2,7.7c1.3,2.3,3.2,4.1,5.5,5.4
			c2.4,1.3,5,2,7.8,2c4.2,0,7.8-1.4,10.5-4.1l1.6,1.6c-1.5,1.6-3.3,2.8-5.4,3.6c-2.1,0.8-4.4,1.2-6.8,1.2
			C180.4,144.8,177.4,144,174.7,142.5z"/>
		<path fill="#212121" d="M204.4,110.2h2.5v34.3h-2.5V110.2z"/>
		<path fill="#212121" d="M224.3,142.5c-2.7-1.5-4.8-3.6-6.4-6.3c-1.6-2.6-2.3-5.6-2.3-8.9c0-3.3,0.8-6.2,2.3-8.9
			c1.6-2.6,3.7-4.7,6.4-6.3c2.7-1.5,5.8-2.3,9.1-2.3s6.4,0.8,9.1,2.3c2.7,1.5,4.8,3.6,6.4,6.2c1.6,2.6,2.3,5.6,2.3,8.9
			c0,3.3-0.8,6.3-2.3,8.9c-1.6,2.6-3.7,4.7-6.4,6.2c-2.7,1.5-5.8,2.3-9.1,2.3S227,144,224.3,142.5z M241.2,140.5
			c2.3-1.3,4.2-3.1,5.5-5.4c1.3-2.3,2-4.9,2-7.7c0-2.8-0.7-5.4-2-7.7c-1.3-2.3-3.2-4.1-5.5-5.4c-2.3-1.3-4.9-2-7.8-2
			c-2.9,0-5.5,0.7-7.8,2c-2.3,1.3-4.2,3.1-5.5,5.4c-1.3,2.3-2,4.9-2,7.7c0,2.8,0.7,5.4,2,7.7c1.3,2.3,3.2,4.1,5.5,5.4
			c2.3,1.3,4.9,2,7.8,2C236.3,142.5,238.9,141.8,241.2,140.5z"/>
		<path fill="#212121" d="M261.7,143.5c-2.3-0.9-4-2-5.3-3.4l1.1-1.9c1.2,1.3,2.8,2.3,4.9,3.1c2,0.8,4.2,1.2,6.4,1.2
			c3.3,0,5.7-0.6,7.4-1.9c1.7-1.2,2.5-2.9,2.5-4.9c0-1.5-0.4-2.8-1.3-3.7c-0.9-0.9-2-1.6-3.3-2.1c-1.3-0.5-3.1-1-5.3-1.5
			c-2.5-0.6-4.5-1.2-6.1-1.8c-1.5-0.6-2.8-1.5-3.9-2.7c-1.1-1.2-1.6-2.9-1.6-4.9c0-1.7,0.4-3.2,1.3-4.6c0.9-1.4,2.2-2.5,4-3.3
			c1.8-0.8,4.1-1.2,6.8-1.2c1.9,0,3.8,0.3,5.6,0.8c1.8,0.6,3.4,1.3,4.8,2.3l-0.9,2c-1.4-0.9-2.9-1.7-4.5-2.2s-3.3-0.7-4.9-0.7
			c-3.2,0-5.6,0.6-7.2,1.9c-1.6,1.3-2.5,2.9-2.5,5c0,1.5,0.4,2.8,1.3,3.7c0.9,0.9,2,1.6,3.3,2.1c1.3,0.5,3.1,1,5.3,1.6
			c2.5,0.6,4.5,1.2,6,1.8s2.8,1.5,3.9,2.7c1.1,1.2,1.6,2.8,1.6,4.8c0,1.7-0.5,3.2-1.3,4.6c-0.9,1.4-2.3,2.5-4.1,3.3
			c-1.9,0.8-4.2,1.2-6.9,1.2C266.4,144.8,264,144.4,261.7,143.5z"/>
		<path fill="#212121" d="M302.4,110.2h2.5v34.3h-2.5V110.2z"/>
		<path fill="#212121" d="M344.8,110.2v34.3h-2.1l-23.4-29.8v29.8h-2.5v-34.3h2.1l23.3,29.8v-29.8H344.8z"/>
		<path fill="#212121" d="M389.2,144.5l0-29.4L374.8,140h-1.2l-14.4-24.7v29.3h-2.4v-34.3h2.1l15.3,26.5l15.3-26.5h2.1l0,34.3H389.2
			z"/>
		<path fill="#212121" d="M409.1,142.5c-2.7-1.5-4.8-3.6-6.4-6.3c-1.6-2.6-2.3-5.6-2.3-8.9c0-3.3,0.8-6.2,2.3-8.9
			c1.6-2.6,3.7-4.7,6.4-6.3c2.7-1.5,5.8-2.3,9.1-2.3s6.4,0.8,9.1,2.3c2.7,1.5,4.8,3.6,6.4,6.2c1.6,2.6,2.3,5.6,2.3,8.9
			c0,3.3-0.8,6.3-2.3,8.9c-1.6,2.6-3.7,4.7-6.4,6.2c-2.7,1.5-5.8,2.3-9.1,2.3S411.8,144,409.1,142.5z M426,140.5
			c2.3-1.3,4.2-3.1,5.5-5.4c1.3-2.3,2-4.9,2-7.7c0-2.8-0.7-5.4-2-7.7c-1.3-2.3-3.2-4.1-5.5-5.4c-2.3-1.3-4.9-2-7.8-2
			c-2.9,0-5.5,0.7-7.8,2c-2.3,1.3-4.2,3.1-5.5,5.4c-1.3,2.3-2,4.9-2,7.7c0,2.8,0.7,5.4,2,7.7c1.3,2.3,3.2,4.1,5.5,5.4
			c2.3,1.3,4.9,2,7.8,2C421.1,142.5,423.7,141.8,426,140.5z"/>
		<path fill="#212121" d="M470.7,129.7c1.3,1.5,1.9,3.4,1.9,5.7c0,2.9-1.1,5.1-3.2,6.7c-2.1,1.6-5.3,2.4-9.5,2.4h-15.3v-34.3H459
			c3.7,0,6.6,0.8,8.7,2.3c2.1,1.5,3.1,3.7,3.1,6.5c0,2-0.5,3.6-1.5,5c-1,1.3-2.4,2.3-4.2,2.9C467.6,127.3,469.4,128.3,470.7,129.7z
			 M447.2,112.4v13.7h11.7c3,0,5.3-0.6,6.9-1.7c1.6-1.2,2.4-2.9,2.4-5.1c0-2.2-0.8-3.9-2.4-5.1c-1.6-1.2-3.9-1.7-6.9-1.7H447.2z
			 M467.6,140.7c1.7-1.2,2.6-3,2.6-5.4c0-2.4-0.9-4.2-2.6-5.3c-1.7-1.1-4.2-1.7-7.6-1.7h-12.8v14.2H460
			C463.3,142.4,465.9,141.8,467.6,140.7z"/>
		<path fill="#212121" d="M481.6,110.2h2.5v34.3h-2.5V110.2z"/>
		<path fill="#212121" d="M496,110.2h2.5v32.1h19.8v2.3H496V110.2z"/>
		<path fill="#212121" d="M524.7,110.2h2.5v34.3h-2.5V110.2z"/>
		<path fill="#212121" d="M560.4,134.9h-19.9l-4.4,9.7h-2.7l15.8-34.3h2.5l15.8,34.3h-2.7L560.4,134.9z M559.5,132.8l-9-19.8
			l-9,19.8H559.5z"/>
		<path fill="#212121" d="M597.6,144.5l-8.2-11.5c-1.2,0.2-2.3,0.2-3.3,0.2h-9.8v11.2h-2.5v-34.3h12.3c4.3,0,7.7,1,10.1,3.1
			c2.4,2,3.7,4.9,3.7,8.5c0,2.7-0.7,5-2.1,6.8c-1.4,1.8-3.4,3.1-6,3.9l8.6,12H597.6z M586.1,131.1c3.7,0,6.5-0.8,8.4-2.4
			c1.9-1.6,2.9-3.9,2.9-6.9c0-3-1-5.3-2.9-6.9c-1.9-1.6-4.7-2.4-8.4-2.4h-9.8v18.6H586.1z"/>
		<path fill="#212121" d="M609.1,110.2h2.5v34.3h-2.5V110.2z"/>
		<path fill="#212121" d="M629,142.5c-2.7-1.5-4.8-3.6-6.4-6.3c-1.6-2.6-2.3-5.6-2.3-8.9c0-3.3,0.8-6.2,2.3-8.9
			c1.6-2.6,3.7-4.7,6.4-6.3c2.7-1.5,5.8-2.3,9.1-2.3c3.4,0,6.4,0.8,9.1,2.3c2.7,1.5,4.8,3.6,6.4,6.2c1.6,2.6,2.3,5.6,2.3,8.9
			c0,3.3-0.8,6.3-2.3,8.9c-1.6,2.6-3.7,4.7-6.4,6.2c-2.7,1.5-5.8,2.3-9.1,2.3C634.7,144.8,631.7,144,629,142.5z M645.9,140.5
			c2.3-1.3,4.2-3.1,5.5-5.4c1.3-2.3,2-4.9,2-7.7c0-2.8-0.7-5.4-2-7.7c-1.3-2.3-3.2-4.1-5.5-5.4c-2.3-1.3-4.9-2-7.8-2
			c-2.9,0-5.5,0.7-7.8,2c-2.3,1.3-4.2,3.1-5.5,5.4c-1.3,2.3-2,4.9-2,7.7c0,2.8,0.7,5.4,2,7.7c1.3,2.3,3.2,4.1,5.5,5.4
			c2.3,1.3,4.9,2,7.8,2C641,142.5,643.6,141.8,645.9,140.5z"/>
		<path fill="#212121" d="M666.5,143.5c-2.3-0.9-4-2-5.3-3.4l1.1-1.9c1.2,1.3,2.8,2.3,4.9,3.1c2,0.8,4.2,1.2,6.4,1.2
			c3.3,0,5.7-0.6,7.4-1.9c1.7-1.2,2.5-2.9,2.5-4.9c0-1.5-0.4-2.8-1.3-3.7c-0.9-0.9-2-1.6-3.3-2.1c-1.3-0.5-3.1-1-5.3-1.5
			c-2.5-0.6-4.5-1.2-6.1-1.8c-1.5-0.6-2.8-1.5-3.9-2.7c-1.1-1.2-1.6-2.9-1.6-4.9c0-1.7,0.4-3.2,1.3-4.6c0.9-1.4,2.2-2.5,4-3.3
			c1.8-0.8,4.1-1.2,6.8-1.2c1.9,0,3.8,0.3,5.6,0.8c1.8,0.6,3.4,1.3,4.8,2.3l-0.9,2c-1.4-0.9-2.9-1.7-4.5-2.2s-3.3-0.7-4.9-0.7
			c-3.2,0-5.6,0.6-7.2,1.9c-1.6,1.3-2.5,2.9-2.5,5c0,1.5,0.4,2.8,1.3,3.7c0.9,0.9,2,1.6,3.3,2.1c1.3,0.5,3.1,1,5.3,1.6
			c2.5,0.6,4.5,1.2,6,1.8s2.8,1.5,3.9,2.7c1.1,1.2,1.6,2.8,1.6,4.8c0,1.7-0.5,3.2-1.3,4.6c-0.9,1.4-2.3,2.5-4.1,3.3
			c-1.9,0.8-4.2,1.2-6.9,1.2C671.1,144.8,668.7,144.4,666.5,143.5z"/>
	</g>
	<path fill="#212121" d="M28.2,88.3c-4.9-1.3-8.9-3-11.9-5.1l6-13.4c2.9,1.9,6.2,3.4,10,4.6c3.8,1.2,7.5,1.7,11.2,1.7
		c7,0,10.4-1.7,10.4-5.2c0-1.8-1-3.2-3-4.1c-2-0.9-5.2-1.8-9.6-2.8c-4.8-1-8.9-2.2-12.1-3.3c-3.2-1.2-6-3.1-8.3-5.7
		c-2.3-2.6-3.5-6.2-3.5-10.6c0-3.9,1.1-7.4,3.2-10.6c2.1-3.1,5.3-5.6,9.6-7.5c4.2-1.8,9.4-2.7,15.6-2.7c4.2,0,8.4,0.5,12.4,1.4
		c4.1,0.9,7.7,2.3,10.8,4.2l-5.6,13.5c-6.1-3.3-12-4.9-17.8-4.9c-3.6,0-6.2,0.5-7.9,1.6c-1.6,1.1-2.5,2.5-2.5,4.2c0,1.7,1,3,2.9,3.8
		c2,0.9,5.1,1.7,9.4,2.7c4.9,1,8.9,2.2,12.1,3.3c3.2,1.2,6,3.1,8.3,5.7c2.3,2.6,3.5,6.1,3.5,10.6c0,3.8-1.1,7.3-3.2,10.4
		c-2.1,3.1-5.3,5.6-9.6,7.5c-4.3,1.9-9.5,2.8-15.6,2.8C38.1,90.2,33.1,89.6,28.2,88.3z"/>
	<path fill="#212121" d="M180.5,24.9L159.7,89h-19.4l-12.3-39l-12.8,39H95.8L75,24.9h18.7l12.9,40.9l13.5-40.9h16.7l12.9,41.3
		l13.5-41.3H180.5z"/>
	<path fill="#212121" d="M238.5,74.9v14H187V24.9h50.3v14h-32.3v10.8h28.5v13.5h-28.5v11.7H238.5z"/>
	<path fill="#212121" d="M300,74.9v14h-51.4V24.9h50.3v14h-32.3v10.8h28.5v13.5h-28.5v11.7H300z"/>
	<path fill="#212121" d="M323.7,39.2H304V24.9h57.4v14.4h-19.6V89h-18.1V39.2z"/>
	<path fill="#212121" d="M455.8,24.9V89h-18.1V64h-24.7v25h-18.1V24.9h18.1V49h24.7V24.9H455.8z"/>
	<path fill="#212121" d="M603.9,89l-0.2-34l-16.5,27.6h-8.1l-16.4-26.7v33H546V24.9H561l22.5,37l22-37h14.9l0.2,64.1H603.9z"/>
	<path fill="#212121" d="M684.8,74.9v14h-51.4V24.9h50.3v14h-32.3v10.8h28.5v13.5h-28.5v11.7H684.8z"/>
	<path fill="#512DA8" d="M499.7,22.7c-19.2,0-34.8,15.6-34.8,34.8s15.6,34.8,34.8,34.8c19.2,0,34.8-15.6,34.8-34.8
		S519,22.7,499.7,22.7z M509.8,80.5c-3.4,0-6.7,0-10.1,0c0,0,0,0,0,0c-3.4,0-6.7,0-10.1,0c-1.2,0-1.9-0.9-1.6-2
		c0.6-2.5,1.1-5.1,1.7-7.6c1.1-4.7,2.1-9.5,3.2-14.2c0.2-0.7,0.3-1.4,0.5-2.1c0.2-0.9,0-1.7-0.7-2.4c-1.5-1.5-2.6-3.3-3-5.4
		c-0.6-3.5,0.3-6.6,2.8-9.1c3.3-3.5,8.8-4.1,12.8-1.5c2.9,1.9,4.6,4.6,4.8,8c0.2,3.1-0.9,5.8-3.1,8.1c-0.8,0.8-1,1.6-0.7,2.7
		c0.6,2.4,1.1,4.8,1.6,7.2c1,4.5,2,8.9,3,13.4c0.2,1,0.5,2,0.7,3C511.7,79.6,511,80.5,509.8,80.5z"/>
</g>
</svg>
